<svg width="136" height="32" viewBox="0 0 136 32" fill="none" xmlns="http://www.w3.org/2000/svg">
<rect y="15.8268" width="14.1732" height="14.1732" fill="#C0C0C0"/>
<rect x="15.8268" y="15.8268" width="14.1732" height="14.1732" fill="#F2A33B"/>
<rect x="15.8257" width="14.1732" height="14.1732" fill="#BB0E0F"/>
<rect width="14.1721" height="14.1721" fill="black"/>
<path d="M55.0273 25H42.4766V21.9414L50.7383 11.8867H42.7578V9.35547H54.7461V12.4141L46.4141 22.5391H55.0273V25ZM62.6998 25H58.9381V9.35547H62.6998V25ZM62.9459 6.08594H58.6569V2.39453H62.9459V6.08594ZM81.2005 25H77.4387V15.2969C77.4387 14.0312 77.1575 13.0469 76.595 12.3438C76.0325 11.6172 75.2591 11.2539 74.2747 11.2539C73.22 11.2539 72.3528 11.6758 71.6731 12.5195C71.0169 13.3633 70.6887 14.4883 70.6887 15.8945V25H66.927V9.35547H70.6887V11.3242C71.2747 10.457 71.9427 9.84766 72.6927 9.49609C73.4661 9.12109 74.4622 8.93359 75.6809 8.93359C77.5091 8.93359 78.8802 9.42578 79.7942 10.4102C80.7317 11.3945 81.2005 12.7539 81.2005 14.4883V25ZM97.0292 17.0898C97.0292 13.2695 95.7284 11.3594 93.1269 11.3594C91.7206 11.3594 90.7011 11.9453 90.0683 13.1172C89.4355 14.2656 89.1191 15.6133 89.1191 17.1602C89.1191 18.6602 89.4472 19.8906 90.1034 20.8516C90.7831 21.7891 91.7792 22.2578 93.0917 22.2578C94.4042 22.2578 95.3886 21.7422 96.0448 20.7109C96.7011 19.6797 97.0292 18.4727 97.0292 17.0898ZM100.756 24.6133C100.756 26.6758 100.088 28.293 98.7519 29.4648C97.4159 30.6367 95.5175 31.2227 93.0566 31.2227C90.5722 31.2227 88.8027 30.7422 87.748 29.7812C86.7167 28.8438 86.2011 27.7539 86.2011 26.5117H89.998C89.998 27.2148 90.3027 27.7656 90.912 28.1641C91.5214 28.5859 92.3066 28.7969 93.2675 28.7969C94.6972 28.7969 95.6698 28.3398 96.1855 27.4258C96.7245 26.5117 96.9941 24.8008 96.9941 22.293C95.7753 23.9805 94.2753 24.8242 92.4941 24.8242C90.2441 24.8242 88.498 24.1445 87.2558 22.7852C86.0136 21.4023 85.3925 19.5273 85.3925 17.1602C85.3925 14.6523 86.0019 12.6602 87.2206 11.1836C88.4628 9.68359 90.1152 8.93359 92.1777 8.93359C94.2402 8.93359 95.8456 9.57812 96.9941 10.8672V9.35547H100.756V24.6133ZM117.252 25H104.702V21.9414L112.963 11.8867H104.983V9.35547H116.971V12.4141L108.639 22.5391H117.252V25ZM135.648 9.35547L128.511 28.6211C128.183 29.4648 127.62 30.1328 126.823 30.625C126.05 31.1406 125.101 31.3984 123.976 31.3984C122.991 31.3984 122.077 31.1523 121.234 30.6602C120.413 30.168 119.78 29.4766 119.335 28.5859L121.831 26.793C122.277 27.7773 122.945 28.2695 123.835 28.2695C124.421 28.2695 124.89 27.7773 125.241 26.793L125.874 25L119.441 9.35547H123.73L127.808 19.9727L131.605 9.35547H135.648Z" fill="#F2A33B"/>
</svg>
