<svg width="122" height="36" viewBox="0 0 122 36" fill="none" xmlns="http://www.w3.org/2000/svg">
<path d="M0.0710228 28V24.7528L9.68466 12.8509V12.7102H0.403409V8.36364H16.2429V11.9048L7.21733 23.5128V23.6534H16.5753V28H0.0710228Z" fill="black"/>
<path d="M22.1797 28V8.36364H27.6257V28H22.1797ZM24.9155 5.83239C24.1058 5.83239 23.4112 5.56392 22.8317 5.02699C22.2607 4.48153 21.9752 3.82954 21.9752 3.07102C21.9752 2.32102 22.2607 1.67756 22.8317 1.14062C23.4112 0.59517 24.1058 0.322442 24.9155 0.322442C25.7252 0.322442 26.4155 0.59517 26.9865 1.14062C27.5661 1.67756 27.8558 2.32102 27.8558 3.07102C27.8558 3.82954 27.5661 4.48153 26.9865 5.02699C26.4155 5.56392 25.7252 5.83239 24.9155 5.83239ZM106.853 35.3636C106.162 35.3636 105.515 35.3082 104.91 35.1974C104.313 35.0952 103.819 34.9631 103.427 34.8011L104.654 30.7358C105.293 30.9318 105.868 31.0384 106.38 31.0554C106.9 31.0724 107.347 30.9531 107.722 30.6974C108.106 30.4418 108.417 30.0071 108.655 29.3935L108.975 28.5625L101.931 8.36364H107.658L111.723 22.7841H111.928L116.032 8.36364H121.797L114.165 30.1222C113.799 31.179 113.3 32.0994 112.669 32.8835C112.047 33.6761 111.259 34.2855 110.304 34.7116C109.35 35.1463 108.199 35.3636 106.853 35.3636Z" fill="#BB0E0F"/>
<path d="M38.8743 16.6477V28H33.4283V8.36364H38.6186V11.8281H38.8488C39.2834 10.6861 40.0121 9.78267 41.0348 9.1179C42.0576 8.4446 43.2976 8.10795 44.755 8.10795C46.1186 8.10795 47.3076 8.40625 48.3218 9.00284C49.336 9.59943 50.1243 10.4517 50.6868 11.5597C51.2493 12.6591 51.5306 13.9716 51.5306 15.4972V28H46.0845V16.4688C46.0931 15.267 45.7863 14.3295 45.1641 13.6562C44.5419 12.9744 43.6854 12.6335 42.5945 12.6335C41.8615 12.6335 41.2138 12.7912 40.6513 13.1065C40.0973 13.4219 39.6627 13.8821 39.3473 14.4872C39.0405 15.0838 38.8828 15.804 38.8743 16.6477Z" fill="#F2A33B"/>
<path d="M66.1094 35.7727C64.3452 35.7727 62.8324 35.5298 61.5711 35.044C60.3182 34.5668 59.3211 33.9148 58.5796 33.0881C57.8381 32.2614 57.3566 31.3324 57.135 30.3011L62.1719 29.6236C62.3253 30.0156 62.5682 30.3821 62.9006 30.723C63.233 31.0639 63.6719 31.3366 64.2174 31.5412C64.7713 31.7543 65.4446 31.8608 66.2373 31.8608C67.4219 31.8608 68.3978 31.571 69.1648 30.9915C69.9404 30.4205 70.3282 29.4616 70.3282 28.1151V24.5227H70.0981C69.8594 25.0682 69.5015 25.5838 69.0242 26.0696C68.5469 26.5554 67.9333 26.9517 67.1833 27.2585C66.4333 27.5653 65.5384 27.7188 64.4986 27.7188C63.0242 27.7188 61.6819 27.3778 60.4716 26.696C59.2699 26.0057 58.3111 24.9531 57.5952 23.5384C56.8878 22.1151 56.5341 20.3168 56.5341 18.1435C56.5341 15.919 56.8963 14.0611 57.6208 12.5696C58.3452 11.0781 59.3083 9.96165 60.51 9.22017C61.7202 8.47869 63.0455 8.10795 64.4858 8.10795C65.5853 8.10795 66.5057 8.29545 67.2472 8.67045C67.9887 9.03693 68.5853 9.49716 69.037 10.0511C69.4972 10.5966 69.8509 11.1335 70.0981 11.6619H70.3026V8.36364H75.7103V28.1918C75.7103 29.8622 75.3012 31.2599 74.483 32.3849C73.6648 33.5099 72.5313 34.3537 71.0824 34.9162C69.6421 35.4872 67.9844 35.7727 66.1094 35.7727ZM66.2245 23.6278C67.1023 23.6278 67.8438 23.4105 68.4489 22.9759C69.0625 22.5327 69.5313 21.902 69.8552 21.0838C70.1875 20.2571 70.3537 19.2685 70.3537 18.1179C70.3537 16.9673 70.1918 15.9702 69.8679 15.1264C69.5441 14.2741 69.0753 13.6136 68.4617 13.1449C67.8481 12.6761 67.1023 12.4418 66.2245 12.4418C65.3296 12.4418 64.5753 12.6847 63.9617 13.1705C63.3481 13.6477 62.8836 14.3125 62.5682 15.1648C62.2529 16.017 62.0952 17.0014 62.0952 18.1179C62.0952 19.2514 62.2529 20.2315 62.5682 21.0582C62.8921 21.8764 63.3566 22.5114 63.9617 22.9631C64.5753 23.4062 65.3296 23.6278 66.2245 23.6278Z" fill="#C0C0C0"/>
<path d="M81.3818 28V24.7528L90.9954 12.8509V12.7102H81.7142V8.36364H97.5537V11.9048L88.5281 23.5128V23.6534H97.8861V28H81.3818Z" fill="#00000C"/>
</svg>
