<svg width="94" height="30" viewBox="0 0 94 30" fill="none" xmlns="http://www.w3.org/2000/svg">
<path d="M13.0273 23H0.476562V19.9414L8.73828 9.88672H0.757812V7.35547H12.7461V10.4141L4.41406 20.5391H13.0273V23ZM20.6998 23H16.9381V7.35547H20.6998V23ZM20.9459 4.08594H16.6569V0.394531H20.9459V4.08594ZM39.2005 23H35.4387V13.2969C35.4387 12.0312 35.1575 11.0469 34.595 10.3438C34.0325 9.61719 33.2591 9.25391 32.2747 9.25391C31.22 9.25391 30.3528 9.67578 29.6731 10.5195C29.0169 11.3633 28.6887 12.4883 28.6887 13.8945V23H24.927V7.35547H28.6887V9.32422C29.2747 8.45703 29.9427 7.84766 30.6927 7.49609C31.4661 7.12109 32.4622 6.93359 33.6809 6.93359C35.5091 6.93359 36.8802 7.42578 37.7942 8.41016C38.7317 9.39453 39.2005 10.7539 39.2005 12.4883V23ZM55.0292 15.0898C55.0292 11.2695 53.7284 9.35938 51.1269 9.35938C49.7206 9.35938 48.7011 9.94531 48.0683 11.1172C47.4355 12.2656 47.1191 13.6133 47.1191 15.1602C47.1191 16.6602 47.4472 17.8906 48.1034 18.8516C48.7831 19.7891 49.7792 20.2578 51.0917 20.2578C52.4042 20.2578 53.3886 19.7422 54.0448 18.7109C54.7011 17.6797 55.0292 16.4727 55.0292 15.0898ZM58.7558 22.6133C58.7558 24.6758 58.0878 26.293 56.7519 27.4648C55.4159 28.6367 53.5175 29.2227 51.0566 29.2227C48.5722 29.2227 46.8027 28.7422 45.748 27.7812C44.7167 26.8438 44.2011 25.7539 44.2011 24.5117H47.998C47.998 25.2148 48.3027 25.7656 48.912 26.1641C49.5214 26.5859 50.3066 26.7969 51.2675 26.7969C52.6972 26.7969 53.6698 26.3398 54.1855 25.4258C54.7245 24.5117 54.9941 22.8008 54.9941 20.293C53.7753 21.9805 52.2753 22.8242 50.4941 22.8242C48.2441 22.8242 46.498 22.1445 45.2558 20.7852C44.0136 19.4023 43.3925 17.5273 43.3925 15.1602C43.3925 12.6523 44.0019 10.6602 45.2206 9.18359C46.4628 7.68359 48.1152 6.93359 50.1777 6.93359C52.2402 6.93359 53.8456 7.57812 54.9941 8.86719V7.35547H58.7558V22.6133ZM75.2525 23H62.7017V19.9414L70.9634 9.88672H62.983V7.35547H74.9712V10.4141L66.6392 20.5391H75.2525V23ZM93.6477 7.35547L86.5109 26.6211C86.1828 27.4648 85.6203 28.1328 84.8234 28.625C84.05 29.1406 83.1008 29.3984 81.9758 29.3984C80.9914 29.3984 80.0773 29.1523 79.2336 28.6602C78.4133 28.168 77.7805 27.4766 77.3352 26.5859L79.8313 24.793C80.2766 25.7773 80.9445 26.2695 81.8352 26.2695C82.4211 26.2695 82.8898 25.7773 83.2414 24.793L83.8742 23L77.4406 7.35547H81.7297L85.8078 17.9727L89.6047 7.35547H93.6477Z" fill="#C0C0C0"/>
</svg>
