<svg width="143" height="40" viewBox="0 0 143 40" fill="none" xmlns="http://www.w3.org/2000/svg">
<rect y="19.1429" width="17.1429" height="17.1429" fill="#C0C0C0"/>
<rect x="19.1429" y="19.1429" width="17.1429" height="17.1429" fill="#F2A33B"/>
<rect x="19.1415" width="17.1429" height="17.1429" fill="#BB0E0F"/>
<rect width="17.1415" height="17.1415" fill="black"/>
<path d="M62.0273 33H49.4766V29.9414L57.7383 19.8867H49.7578V17.3555H61.7461V20.4141L53.4141 30.5391H62.0273V33ZM69.6998 33H65.9381V17.3555H69.6998V33ZM69.9459 14.0859H65.6569V10.3945H69.9459V14.0859ZM88.2005 33H84.4387V23.2969C84.4387 22.0312 84.1575 21.0469 83.595 20.3438C83.0325 19.6172 82.2591 19.2539 81.2747 19.2539C80.22 19.2539 79.3528 19.6758 78.6731 20.5195C78.0169 21.3633 77.6887 22.4883 77.6887 23.8945V33H73.927V17.3555H77.6887V19.3242C78.2747 18.457 78.9427 17.8477 79.6927 17.4961C80.4661 17.1211 81.4622 16.9336 82.6809 16.9336C84.5091 16.9336 85.8802 17.4258 86.7942 18.4102C87.7317 19.3945 88.2005 20.7539 88.2005 22.4883V33ZM104.029 25.0898C104.029 21.2695 102.728 19.3594 100.127 19.3594C98.7206 19.3594 97.7011 19.9453 97.0683 21.1172C96.4355 22.2656 96.1191 23.6133 96.1191 25.1602C96.1191 26.6602 96.4472 27.8906 97.1034 28.8516C97.7831 29.7891 98.7792 30.2578 100.092 30.2578C101.404 30.2578 102.389 29.7422 103.045 28.7109C103.701 27.6797 104.029 26.4727 104.029 25.0898ZM107.756 32.6133C107.756 34.6758 107.088 36.293 105.752 37.4648C104.416 38.6367 102.518 39.2227 100.057 39.2227C97.5722 39.2227 95.8027 38.7422 94.748 37.7812C93.7167 36.8438 93.2011 35.7539 93.2011 34.5117H96.998C96.998 35.2148 97.3027 35.7656 97.912 36.1641C98.5214 36.5859 99.3066 36.7969 100.268 36.7969C101.697 36.7969 102.67 36.3398 103.185 35.4258C103.725 34.5117 103.994 32.8008 103.994 30.293C102.775 31.9805 101.275 32.8242 99.4941 32.8242C97.2441 32.8242 95.498 32.1445 94.2558 30.7852C93.0136 29.4023 92.3925 27.5273 92.3925 25.1602C92.3925 22.6523 93.0019 20.6602 94.2206 19.1836C95.4628 17.6836 97.1152 16.9336 99.1777 16.9336C101.24 16.9336 102.846 17.5781 103.994 18.8672V17.3555H107.756V32.6133ZM124.252 33H111.702V29.9414L119.963 19.8867H111.983V17.3555H123.971V20.4141L115.639 30.5391H124.252V33ZM142.648 17.3555L135.511 36.6211C135.183 37.4648 134.62 38.1328 133.823 38.625C133.05 39.1406 132.101 39.3984 130.976 39.3984C129.991 39.3984 129.077 39.1523 128.234 38.6602C127.413 38.168 126.78 37.4766 126.335 36.5859L128.831 34.793C129.277 35.7773 129.945 36.2695 130.835 36.2695C131.421 36.2695 131.89 35.7773 132.241 34.793L132.874 33L126.441 17.3555H130.73L134.808 27.9727L138.605 17.3555H142.648Z" fill="#F2A33B"/>
</svg>
